<?xml version="1.0" encoding="UTF-8"?>
<svg version="1.1" xmlns="http://www.w3.org/2000/svg" width="1254" height="1254">
<path d="M0 0 C413.82 0 827.64 0 1254 0 C1254 413.82 1254 827.64 1254 1254 C840.18 1254 426.36 1254 0 1254 C0 840.18 0 426.36 0 0 Z " fill="#0B2354" transform="translate(0,0)"/>
<path d="M0 0 C3.18458168 1.05942292 6.39901566 1.93326339 9.64697266 2.77636719 C15.63403529 4.45194998 21.08932518 6.71969545 26.67431641 9.43652344 C28.74001993 10.4334846 30.83205863 11.37724603 32.94384766 12.27246094 C58.47070649 23.1025676 82.46977367 38.10143077 103.70947266 55.90136719 C105.21767578 57.13306641 105.21767578 57.13306641 106.75634766 58.38964844 C114.04603058 64.4196108 120.87418186 70.85919578 127.58447266 77.52636719 C128.36878662 78.30149658 129.15310059 79.07662598 129.96118164 79.87524414 C135.30492005 85.24730725 140.07652579 90.91046552 144.70947266 96.90136719 C145.58095106 97.99975196 146.45320604 99.09752162 147.32666016 100.19433594 C184.17533548 147.43459271 207.59596814 206.66406002 215.70947266 265.90136719 C215.8619043 266.97999023 216.01433594 268.05861328 216.17138672 269.16992188 C218.96000729 289.43711027 219.14673048 309.4951397 218.70947266 329.90136719 C218.68868652 330.90538574 218.66790039 331.9094043 218.64648438 332.94384766 C218.3892763 343.00544637 217.08568317 352.79590782 215.39306641 362.70214844 C214.86406039 365.83147012 214.48957987 368.92029386 214.27197266 372.08886719 C213.14022304 384.97075265 208.33912649 397.92633747 204.45947266 410.21386719 C204.21892151 410.97828125 203.97837036 411.74269531 203.73052979 412.53027344 C200.01338627 424.29452784 195.92322268 435.7077441 190.70947266 446.90136719 C189.99518909 448.48697069 189.28167272 450.07291997 188.56884766 451.65917969 C175.17439324 481.08446671 156.12678012 507.65758569 133.70947266 530.90136719 C133.01547363 531.62259766 132.32147461 532.34382812 131.60644531 533.08691406 C121.84540197 543.17531574 112.02739732 552.59323376 100.70947266 560.90136719 C99.22447266 562.04412109 99.22447266 562.04412109 97.70947266 563.20996094 C49.82178381 599.95357326 -6.94003816 619.58924584 -66.29052734 627.90136719 C-66.9861377 628.00433105 -67.68174805 628.10729492 -68.3984375 628.21337891 C-96.44804326 632.22408603 -127.25234201 631.67425945 -154.92333984 625.60449219 C-158.0084188 624.96027616 -161.03939592 624.53280497 -164.16552734 624.15136719 C-174.08488592 622.6940787 -183.67481725 619.57492123 -193.28076172 616.77539062 C-195.97305636 615.99355944 -198.66924817 615.22851183 -201.36865234 614.47167969 C-207.78988257 612.65623531 -214.06325583 610.81438942 -220.09521484 607.91308594 C-222.73741533 606.69541703 -225.43451173 605.71660851 -228.16552734 604.71386719 C-242.61021557 599.19586129 -256.28410996 592.24644327 -269.29052734 583.90136719 C-269.88220703 583.52431641 -270.47388672 583.14726563 -271.08349609 582.75878906 C-284.96296112 573.86208209 -298.99014548 564.40871858 -310.98974609 553.06152344 C-312.9377825 551.23255208 -314.92231072 549.4875585 -316.94677734 547.74511719 C-329.3974089 536.88497393 -341.24355612 525.02290526 -350.99560547 511.66259766 C-352.42865579 509.71349792 -353.89588066 507.79326886 -355.36865234 505.87402344 C-361.05786348 498.43502573 -366.47231077 490.94236439 -371.29052734 482.90136719 C-371.66387207 482.28712891 -372.0372168 481.67289063 -372.421875 481.04003906 C-378.15686837 471.59309794 -383.44696316 462.01658435 -388.22900391 452.05273438 C-389.01145218 450.46696294 -389.82555169 448.89671461 -390.65673828 447.3359375 C-394.71720059 439.59609187 -397.63553574 431.73178355 -400.33300781 423.44628906 C-401.04309234 421.2685005 -401.76924507 419.09655649 -402.49755859 416.92480469 C-404.91322315 409.64821198 -406.96156768 402.46163324 -408.29052734 394.90136719 C-408.60205694 393.49544867 -408.92351943 392.09169056 -409.25537109 390.69042969 C-411.12519791 382.71781447 -412.74433241 374.74870793 -413.97802734 366.65136719 C-414.15676392 365.5020874 -414.15676392 365.5020874 -414.33911133 364.32958984 C-416.18057143 351.70129523 -416.55918905 338.95781645 -416.60302734 326.21386719 C-416.60597809 325.44755981 -416.60892883 324.68125244 -416.61196899 323.89172363 C-416.62231827 311.88471486 -415.88660991 300.07362176 -414.47802734 288.15136719 C-414.39525543 287.44509186 -414.31248352 286.73881653 -414.22720337 286.01113892 C-410.52402369 255.11362374 -403.91088181 223.3656984 -391.48583984 194.72558594 C-390.25400642 191.81507756 -389.17996333 188.87235492 -388.10302734 185.90136719 C-376.28993641 155.12129486 -356.8992048 125.56824239 -334.55615234 101.37792969 C-332.68878977 99.33670922 -330.87744531 97.26604241 -329.07177734 95.17089844 C-325.07156694 90.58915023 -320.84258497 86.26134572 -316.54052734 81.96386719 C-315.74557861 81.16972412 -314.95062988 80.37558105 -314.1315918 79.55737305 C-309.24962769 74.7260713 -304.32631145 70.1844899 -298.90771484 65.95996094 C-296.44395777 64.02205052 -294.08048338 61.99524835 -291.72094727 59.93261719 C-284.02108939 53.24011963 -275.81917131 47.48427503 -267.29052734 41.90136719 C-266.5502832 41.41522949 -265.81003906 40.9290918 -265.04736328 40.42822266 C-247.23773961 28.79628852 -229.10544386 18.68579868 -209.29052734 10.90136719 C-208.08396484 10.41925781 -206.87740234 9.93714844 -205.63427734 9.44042969 C-184.94204184 1.31133717 -163.42489152 -4.70781611 -141.56005859 -8.68115234 C-139.33054453 -9.09127165 -137.10736512 -9.52620658 -134.88427734 -9.96972656 C-91.18557571 -18.56225229 -41.98672703 -14.29190999 0 0 Z " fill="#0B2354" transform="translate(727.29052734375,312.0986328125)"/>
<path d="M0 0 C3.26154359 0.43955117 6.52278716 0.81336471 9.79492188 1.16210938 C10.48521484 1.24138672 11.17550781 1.32066406 11.88671875 1.40234375 C12.50764404 1.46929443 13.12856934 1.53624512 13.76831055 1.60522461 C16.91822543 2.16242977 19.93019547 3.10486185 23 4 C25.25143927 4.57613423 27.5054635 5.14224328 29.76171875 5.69921875 C54.33835762 11.84376677 54.33835762 11.84376677 65.4375 15.75 C66.20344482 16.01901123 66.96938965 16.28802246 67.75854492 16.56518555 C72.02391229 18.12262634 76.04683843 19.95956357 80.08227539 22.03759766 C82.99390809 23.49878876 86.00262293 24.72611475 89 26 C115.41155681 38.41098618 139.30717076 53.73620702 162 72 C162.90782227 72.72775635 162.90782227 72.72775635 163.83398438 73.47021484 C178.90518676 85.65864163 193.25264869 99.56720514 205 115 C205.86953422 116.0830329 206.7421365 117.16360705 207.6171875 118.2421875 C214.28377943 126.49944573 220.29232842 135.05750708 226 144 C226.50289551 144.78262207 227.00579102 145.56524414 227.52392578 146.37158203 C238.59258325 163.66320238 248.78272441 181.37010073 255.875 200.6875 C257.69744886 205.61899987 259.60130998 210.4846403 261.6875 215.3125 C263.65333479 219.94759929 265.08136709 224.55548715 266.32421875 229.4296875 C266.93907022 231.76825552 267.6492028 234.02770277 268.4375 236.3125 C268.96077283 237.87418472 269.4814219 239.43675006 270 241 C270.29777344 241.886875 270.59554687 242.77375 270.90234375 243.6875 C274.57228582 255.47847853 276.36063461 267.65724496 278.43481445 279.80712891 C278.94092426 282.66626671 279.49554305 285.50803277 280.08203125 288.3515625 C280.94693028 292.5949194 281.57557674 296.82313885 282.0625 301.125 C282.29646484 303.07792969 282.29646484 303.07792969 282.53515625 305.0703125 C283.94589448 319.14594183 284.18636488 333.16978943 284.18530273 347.3059082 C284.18748 350.53285104 284.20568122 353.75944574 284.22460938 356.98632812 C284.31744444 391.40944014 278.8915158 424.32545261 268 457 C267.70867188 457.95648437 267.41734375 458.91296875 267.1171875 459.8984375 C263.89952858 470.24712429 259.38299022 480.10509586 255 490 C254.66983887 490.75506836 254.33967773 491.51013672 253.99951172 492.28808594 C236.00155185 533.25282491 205.97963688 571.92346508 172 601 C170.63101562 602.20269531 170.63101562 602.20269531 169.234375 603.4296875 C149.48871692 620.64034405 127.1844421 634.8876001 104 647 C103.17677246 647.43135254 102.35354492 647.86270508 101.50537109 648.30712891 C69.65706791 664.76919768 35.06257486 675.30161378 -0.1875 681.375 C-1.24623322 681.55781525 -1.24623322 681.55781525 -2.32635498 681.74432373 C-7.20711505 682.57476009 -12.09658218 683.31658873 -17 684 C-17.6959024 684.09924774 -18.39180481 684.19849548 -19.10879517 684.30075073 C-33.1831316 686.2421009 -47.24337902 686.33987948 -61.43237305 686.31567383 C-65.29569758 686.31251374 -69.15825379 686.33606222 -73.02148438 686.36132812 C-93.5731144 686.41383751 -112.93215853 684.263761 -132.89355469 679.47705078 C-135.14972952 678.96609046 -137.41378389 678.53908627 -139.6875 678.11328125 C-145.98316558 676.86970043 -152.10224703 675.07655632 -158.25 673.25 C-159.44351074 672.89655518 -160.63702148 672.54311035 -161.86669922 672.17895508 C-169.25266165 669.94724355 -176.27554973 667.46233925 -183.28515625 664.23046875 C-185.69515953 663.1381651 -188.0380931 662.27847129 -190.5625 661.5 C-196.62368043 659.57245549 -202.27910573 656.75380766 -208 654 C-208.60199219 653.71527832 -209.20398438 653.43055664 -209.82421875 653.13720703 C-237.38255434 640.07299605 -262.4320274 622.56763267 -284.86328125 601.953125 C-286.76912347 600.21103887 -288.71503302 598.54045187 -290.6875 596.875 C-300.16026975 588.59595326 -309.12559537 579.53783965 -316.90625 569.65234375 C-319.13671932 566.82680519 -321.46926946 564.10753308 -323.8125 561.375 C-340.82594449 540.92210917 -354.18236755 517.74854742 -366 494 C-366.36351562 493.27022949 -366.72703125 492.54045898 -367.1015625 491.78857422 C-374.84046059 476.10130983 -380.26605233 459.80551422 -385 443 C-385.19335938 442.32001953 -385.38671875 441.64003906 -385.5859375 440.93945312 C-398.2946375 395.58412887 -398.91906763 344.23573063 -391 298 C-390.83209961 296.89720703 -390.66419922 295.79441406 -390.49121094 294.65820312 C-390.24419434 293.0562207 -390.24419434 293.0562207 -389.9921875 291.421875 C-389.84894043 290.4740918 -389.70569336 289.52630859 -389.55810547 288.54980469 C-389.01116951 286.05102991 -388.14630006 284.26649102 -387 282 C-386.57372738 280.24687882 -386.20773493 278.47853786 -385.88671875 276.703125 C-385.69335938 275.66953857 -385.5 274.63595215 -385.30078125 273.57104492 C-385.09839844 272.4751001 -384.89601563 271.37915527 -384.6875 270.25 C-382.12613366 256.96005347 -378.72093847 244.58533145 -373.3203125 232.13671875 C-371.74751396 228.40015891 -370.34028929 224.61536378 -368.9375 220.8125 C-366.81546121 215.10599894 -364.63001338 209.49261299 -362 204 C-361.51789063 202.96101562 -361.03578125 201.92203125 -360.5390625 200.8515625 C-351.26975166 181.33388144 -339.70701655 162.45657543 -327 145 C-326.2575 143.96488281 -325.515 142.92976562 -324.75 141.86328125 C-316.84494911 131.06441709 -307.96567513 121.04961089 -298.9375 111.18359375 C-297.51893537 109.58484853 -296.17378319 107.92014679 -294.875 106.22265625 C-294.25625 105.48917969 -293.6375 104.75570312 -293 104 C-292.34 104 -291.68 104 -291 104 C-290.731875 103.360625 -290.46375 102.72125 -290.1875 102.0625 C-289 100 -289 100 -286 99 C-285.505 97.515 -285.505 97.515 -285 96 C-283.50390625 94.4921875 -283.50390625 94.4921875 -281.5625 92.875 C-278.35814273 90.16186327 -275.22325844 87.39645203 -272.125 84.5625 C-219.71601796 37.44974993 -151.76811822 7.7928646 -82 -1 C-81.26990723 -1.10151367 -80.53981445 -1.20302734 -79.78759766 -1.30761719 C-19.16428843 -9.58214422 -19.16428843 -9.58214422 0 0 Z M-96 24 C-97.54290847 24.29198536 -99.08588352 24.58361903 -100.62890625 24.875 C-109.42352745 26.55873641 -118.04253555 28.41341094 -126.62109375 30.99609375 C-129.70181274 31.91140563 -132.78932221 32.74480398 -135.8996582 33.55053711 C-141.7594482 35.0692591 -147.39560295 36.72823676 -153 39 C-153.89074219 39.33515625 -154.78148437 39.6703125 -155.69921875 40.015625 C-159.14528337 41.3127635 -162.57442094 42.65000965 -166 44 C-166.6899707 44.2690918 -167.37994141 44.53818359 -168.09082031 44.81542969 C-187.95823883 52.62647606 -206.38248517 62.98521366 -224 75 C-224.71526855 75.4846875 -225.43053711 75.969375 -226.16748047 76.46875 C-235.28258892 82.67340614 -243.90289838 89.19308763 -252.19287109 96.46386719 C-254.47298021 98.40205235 -256.81856143 100.25277867 -259.15625 102.12109375 C-264.81596848 106.73909037 -270.02630617 111.72087493 -275.16210938 116.90136719 C-276.62413161 118.37412523 -278.09657488 119.83585045 -279.5703125 121.296875 C-285.04882454 126.76794862 -290.16525518 132.42657411 -294.9855957 138.49584961 C-297.10461679 141.13005144 -299.32032068 143.65777823 -301.5625 146.1875 C-322.09716956 170.84187776 -340.59890937 202.08505891 -350.02734375 232.87109375 C-350.88433457 235.62791965 -351.87049609 238.22177318 -353 240.875 C-355.94206325 248.04701763 -357.91870234 255.54423199 -360 263 C-360.21833496 263.77085937 -360.43666992 264.54171875 -360.66162109 265.3359375 C-363.89317266 276.80473069 -366.31066935 288.20794932 -368 300 C-368.18925049 301.30590088 -368.18925049 301.30590088 -368.38232422 302.63818359 C-369.18629367 308.23218116 -369.93841461 313.83123467 -370.65917969 319.43652344 C-370.9566565 321.6739923 -371.28689415 323.90246279 -371.6328125 326.1328125 C-373.17941505 336.80935914 -373.18382101 347.48417176 -373.1875 358.25 C-373.18849701 359.02136292 -373.18949402 359.79272583 -373.19052124 360.58746338 C-373.18838423 375.20264338 -372.30037715 389.48385531 -369.89819336 403.91625977 C-369.55889123 405.95922873 -369.23098442 408.00380786 -368.90429688 410.04882812 C-367.90862769 416.15858071 -366.73126955 422.0479997 -365 428 C-364.71208543 429.47000287 -364.44321615 430.9439479 -364.19921875 432.421875 C-362.89123027 439.14867291 -360.70332494 445.59758018 -358.53393555 452.08447266 C-357.81972426 454.22831499 -357.12330662 456.37739319 -356.42773438 458.52734375 C-353.36579728 467.83043633 -349.57093201 476.33788395 -345 485 C-344.29884489 486.41967073 -343.60344099 487.84222215 -342.91796875 489.26953125 C-336.31026758 502.79816547 -328.94445176 515.86633798 -320 528 C-319.13475311 529.19483226 -318.2702278 530.39018724 -317.40625 531.5859375 C-301.31689643 553.78326051 -282.92025952 575.32992443 -261 592 C-259.69317779 593.02237411 -258.38726178 594.04590712 -257.08203125 595.0703125 C-247.99612479 602.15871146 -238.70976292 608.79578316 -229 615 C-227.93523437 615.68578125 -226.87046875 616.3715625 -225.7734375 617.078125 C-209.61908704 627.25977517 -192.34831368 636.36600049 -174.0390625 641.98046875 C-171.46876487 642.84274083 -169.02654664 643.81262488 -166.52734375 644.85546875 C-160.13921276 647.43799337 -153.56633067 649.26935076 -146.9375 651.125 C-145.72255859 651.47175781 -144.50761719 651.81851563 -143.25585938 652.17578125 C-133.77921667 654.85697772 -124.42154708 657.0295397 -114.6875 658.5 C-113.01032664 658.7572262 -111.33324292 659.01503754 -109.65625 659.2734375 C-108.85445312 659.39686523 -108.05265625 659.52029297 -107.2265625 659.64746094 C-104.37271991 660.09931935 -101.53106619 660.61285233 -98.6875 661.125 C-18.29117614 674.45604211 71.0915693 646.12212591 136.40087891 599.88720703 C157.56504665 584.52002531 178.21498116 565.88529077 194 545 C194.74378906 544.07316406 195.48757813 543.14632812 196.25390625 542.19140625 C224.62620468 506.44139939 242.18653785 465.81943519 254 422 C254.26506348 421.02740234 254.53012695 420.05480469 254.80322266 419.05273438 C256.62635053 412.11156068 257.79142353 405.24828981 258.625 398.125 C258.86630778 396.14832991 259.10846955 394.17176385 259.3515625 392.1953125 C259.46218018 391.28281738 259.57279785 390.37032227 259.68676758 389.43017578 C259.9315942 387.53071809 260.23077782 385.63824718 260.55078125 383.75 C269.07698426 331.55480941 257.59009939 275.65868522 240.8125 226.5 C240.39653564 225.27700195 239.98057129 224.05400391 239.55200195 222.79394531 C237.3992587 216.59549227 235.0272516 210.81567952 232 205 C231.26201313 203.0735998 230.55209165 201.13613779 229.875 199.1875 C219.49221943 171.84617783 201.67620766 145.42778315 182.38330078 123.57202148 C181.3847921 122.43728845 180.3945851 121.29523163 179.40966797 120.14868164 C169.31913504 108.44807931 158.28397411 97.38587834 146 88 C144.71536643 86.98796772 143.4315783 85.97486177 142.1484375 84.9609375 C127.66200661 73.59833788 112.45281072 63.93259685 96.24951172 55.21289062 C93.98433987 53.99155638 91.72832169 52.75441207 89.47265625 51.515625 C82.65185954 47.80009165 75.98711808 44.33784358 68.58984375 41.890625 C65.73240863 40.90797763 63.01450146 39.71887714 60.25 38.5 C54.39673344 36.01331813 48.50526393 34.41612726 42.34765625 32.89453125 C39 32 39 32 36.59277344 31.02954102 C10.58093252 20.70073375 -19.36691322 19.63993935 -47 19.625 C-47.97746185 19.62300598 -48.95492371 19.62101196 -49.96200562 19.61895752 C-65.62312827 19.6225832 -80.6187649 20.95797575 -96 24 Z " fill="#F8D21B" transform="translate(684,279)"/>
<path d="M0 0 C0.9246254 -0.00131424 1.84925079 -0.00262848 2.80189514 -0.00398254 C5.8421945 -0.00238753 8.88170982 0.02298579 11.921875 0.05078125 C14.04711866 0.06081187 16.17236281 0.07073901 18.29760742 0.08056641 C36.02508948 0.20091761 53.70308034 0.89084986 71.39750671 1.9460907 C76.30474918 2.23713625 81.21166686 2.48586073 86.12306213 2.69552612 C89.28863589 2.83167601 92.45343983 2.98217079 95.61825562 3.13482666 C97.09147977 3.20283366 98.56498833 3.26497901 100.03872681 3.32073975 C102.05650002 3.39849154 104.07325585 3.50141416 106.08984375 3.60546875 C107.22188232 3.65558105 108.3539209 3.70569336 109.52026367 3.75732422 C114.28406102 4.67325458 117.51274816 6.93369149 120.546875 10.67578125 C122.03719895 14.23599958 122.20951124 16.53262301 121.671875 20.36328125 C118.82315896 24.67705125 116.54331324 26.79046651 111.671875 28.36328125 C107.81214473 28.80772307 103.92945294 28.69329461 100.046875 28.67578125 C98.7892334 28.67376709 97.5315918 28.67175293 96.23583984 28.66967773 C78.97614943 28.54657391 61.73252345 27.4431387 44.50292969 26.5012207 C28.21944061 25.60507104 28.21944061 25.60507104 11.921875 25.046875 C11.15451019 25.02847061 10.38714539 25.01006622 9.5965271 24.99110413 C6.22753099 24.91491378 2.86057822 24.85950318 -0.50927734 24.83032227 C-1.63285645 24.81026123 -2.75643555 24.7902002 -3.9140625 24.76953125 C-4.8529834 24.76244141 -5.7919043 24.75535156 -6.75927734 24.74804688 C-11.10305162 24.09743024 -14.53794513 21.7114971 -17.328125 18.36328125 C-18.53003401 14.75755421 -18.65482815 12.15303775 -18.328125 8.36328125 C-13.69769384 0.81739343 -8.2117435 -0.08587041 0 0 Z " fill="#F9D21D" transform="translate(116.328125,595.63671875)"/>
<path d="M0 0 C3.44036722 1.40999863 6.52726922 3.30193706 9.6875 5.25 C11.5530171 6.35999424 13.41891334 7.46935149 15.28515625 8.578125 C16.23277832 9.14853516 17.18040039 9.71894531 18.15673828 10.30664062 C21.73942875 12.44038106 25.36871029 14.48397526 29.00439453 16.52563477 C39.01474192 22.15750433 48.74086312 28.16143359 58.41162109 34.35351562 C62.26348421 36.80371038 66.13990389 39.2140008 70.015625 41.6262207 C74.06845884 44.15001351 78.11387891 46.68554528 82.15869141 49.22216797 C83.99451422 50.37085862 85.83258197 51.51597272 87.67333984 52.65673828 C90.05955704 54.13607301 92.43693134 55.62864629 94.8125 57.125 C95.50553223 57.54982666 96.19856445 57.97465332 96.91259766 58.41235352 C100.69440477 60.81699022 103.18149752 62.86042707 105 67 C105.74826606 70.87337724 105.33328314 74.16679214 103.875 77.8125 C100.67606243 81.54459383 97.54749746 82.86933458 92.68066406 83.28027344 C88.47497422 82.96002059 86.413585 81.92859511 82.859375 79.703125 C82.29955933 79.35851227 81.73974365 79.01389954 81.16296387 78.65884399 C79.34905516 77.53719345 77.54980757 76.39411316 75.75 75.25 C74.48618131 74.46237145 73.22152417 73.67608678 71.95605469 72.89111328 C68.84673164 70.95731707 65.74877887 69.00622013 62.65527344 67.04724121 C60.36816392 65.60025651 58.07462718 64.16358678 55.78125 62.7265625 C51.99473192 60.3473343 48.21879271 57.95180282 44.44482422 55.55273438 C30.39183731 46.62752999 16.27246993 37.87014947 1.84106445 29.56689453 C-12.90401054 21.07290241 -12.90401054 21.07290241 -16 15 C-16.66061986 11.36659076 -16.77090289 9.18220778 -14.71875 6.03515625 C-10.35305109 0.8027377 -7.01708457 -1.08571251 0 0 Z " fill="#F9D31D" transform="translate(986,816)"/>
<path d="M0 0 C3.27864914 1.81043428 6.47803328 3.71622208 9.671875 5.67236328 C10.84375931 6.37201339 12.01678552 7.06975424 13.19091797 7.765625 C15.49735077 9.13443568 17.79816482 10.51134413 20.09667969 11.89355469 C23.79750753 14.10946796 27.53116005 16.2566282 31.296875 18.35986328 C31.89693359 18.69614746 32.49699219 19.03243164 33.11523438 19.37890625 C49.89866297 28.74426898 66.76265118 37.97101088 84.1953125 46.07861328 C85.48248169 46.67947754 85.48248169 46.67947754 86.7956543 47.29248047 C88.45799976 48.06563495 90.12337379 48.83232365 91.79223633 49.59130859 C102.01933847 54.3337455 102.01933847 54.3337455 104.203125 58.88330078 C105.02439032 62.78431107 105.34482729 65.16195881 104.171875 69.04736328 C101.76757508 72.27814129 99.78006659 73.93076749 96.171875 75.73486328 C89.88943249 76.40320823 85.45628527 74.56698975 79.859375 72.04736328 C78.95493652 71.6487207 78.05049805 71.25007813 77.11865234 70.83935547 C57.20810632 61.93546999 37.99749441 51.7285661 19.171875 40.73486328 C18.27678223 40.21504883 17.38168945 39.69523437 16.45947266 39.15966797 C7.82149212 34.12860025 -0.72097899 29.00364255 -8.890625 23.23486328 C-9.456604 22.83759033 -10.02258301 22.44031738 -10.60571289 22.03100586 C-14.35645899 19.30790937 -17.4120994 17.03986999 -18.26171875 12.33251953 C-18.26833558 8.03819413 -18.24500025 5.4392387 -16.015625 1.67236328 C-11.28749778 -2.51540654 -5.53284304 -2.47506842 0 0 Z " fill="#F9D31C" transform="translate(203.828125,341.26513671875)"/>
<path d="M0 0 C1.34440124 -0.02082073 2.68880228 -0.04165405 4.03320312 -0.0625 C20.07950114 -0.12627068 20.07950114 -0.12627068 25.73413086 4.66699219 C28.64650797 8.13765074 28.36003431 11.93575251 28.0625 16.25 C26.13960842 20.84357433 23.32285974 22.80512729 19.0625 25.25 C15.92675781 25.76416016 15.92675781 25.76416016 12.515625 25.7890625 C11.21802246 25.81105713 9.92041992 25.83305176 8.58349609 25.85571289 C7.89084656 25.85878448 7.19819702 25.86185608 6.48455811 25.86502075 C2.67400856 25.88252784 -1.13546018 25.96367452 -4.9453125 26.03515625 C-5.75370575 26.04858566 -6.562099 26.06201508 -7.39498901 26.07585144 C-15.91964821 26.23248825 -24.42182784 26.7060153 -32.93411255 27.17123413 C-47.48196604 27.95312615 -62.01904241 28.47522399 -76.58880615 28.54855347 C-78.34864478 28.55777626 -80.10846547 28.57179569 -81.8682251 28.59085083 C-84.30434977 28.61444887 -86.73956442 28.61731591 -89.17578125 28.61328125 C-89.89150803 28.6224054 -90.6072348 28.63152954 -91.34465027 28.64093018 C-95.72134466 28.60059289 -98.4415008 27.9013767 -101.9375 25.25 C-104.80556426 21.78854313 -105.46708436 18.74813125 -105.296875 14.24609375 C-104.70067469 10.93458984 -103.05618967 8.79242761 -100.9375 6.25 C-97.68066524 4.07877683 -96.33825865 3.91290132 -92.52636719 3.65625 C-91.45269897 3.58277344 -90.37903076 3.50929688 -89.27282715 3.43359375 C-84.02172268 3.14454565 -78.77173343 2.92428926 -73.515625 2.75 C-72.37196472 2.70939453 -71.22830444 2.66878906 -70.04998779 2.62695312 C-66.42924718 2.49859964 -62.80839474 2.37392367 -59.1875 2.25 C-54.42178033 2.08593004 -49.65614868 1.91967057 -44.890625 1.75 C-43.7450563 1.70929382 -42.59948761 1.66858765 -41.41920471 1.62664795 C-35.34883033 1.40276525 -29.29052427 1.12090506 -23.23046875 0.703125 C-15.48079982 0.18203541 -7.76466901 0.03070556 0 0 Z " fill="#F8D21D" transform="translate(1124.9375,596.75)"/>
<path d="M0 0 C4.96828588 0.11962165 7.79664429 1.37735657 11.29272461 4.95532227 C13.20005367 8.17871839 13.12869563 11.13599661 13.12890625 14.77734375 C13.14143433 15.51282944 13.1539624 16.24831512 13.16687012 17.00608826 C13.19298716 18.59086444 13.21283849 20.17575377 13.2270813 21.76068115 C13.2661947 26.00899059 13.35146775 30.2563252 13.4375 34.50390625 C13.46228172 35.78249512 13.46228172 35.78249512 13.48756409 37.08691406 C13.63877594 43.98327404 14.14404455 50.81685703 14.75 57.6875 C15.84684824 71.25884483 15.97035915 84.84436903 16.04098511 98.45367432 C16.05526591 100.9735369 16.0761427 103.49337119 16.10379028 106.01312256 C16.13964304 109.5806341 16.14797801 113.14717244 16.1484375 116.71484375 C16.16986565 118.33490074 16.16986565 118.33490074 16.19172668 119.98768616 C16.15503448 126.08422564 15.78638836 129.68626099 11.6875 134.3125 C8.90272413 136.51100726 7.20982202 137.24720975 3.6875 137.6875 C-0.79793473 137.12682066 -3.24681773 135.64460284 -6.0625 132.125 C-8.87501375 125.79684406 -8.48658424 118.36499679 -8.59375 111.5390625 C-8.62136414 110.15513809 -8.62136414 110.15513809 -8.64953613 108.74325562 C-8.7078174 105.80806358 -8.76071459 102.87281331 -8.8125 99.9375 C-9.07912792 84.22936733 -9.07912792 84.22936733 -9.82421875 68.5390625 C-10.48654624 57.86520485 -10.57004545 47.18654605 -10.60766602 36.49462891 C-10.61933082 34.184997 -10.64000252 31.87539491 -10.66918945 29.56591797 C-10.711702 26.18438905 -10.7279931 22.80363718 -10.73828125 19.421875 C-10.75578934 18.39374695 -10.77329742 17.3656189 -10.79133606 16.30633545 C-10.76880443 8.89346675 -9.04509596 0.04560553 0 0 Z " fill="#F8D21C" transform="translate(628.3125,96.6875)"/>
<path d="M0 0 C3.12291165 1.68012647 5.39164837 3.78329674 7 7 C7.38182199 12.7273298 7.02908376 15.98634411 4 21 C3.65533691 21.57411621 3.31067383 22.14823242 2.95556641 22.73974609 C-10.95903951 45.50751275 -26.67747773 67.28853302 -42.41210938 88.82421875 C-43.484246 90.29329649 -44.55318307 91.76471387 -45.61914062 93.23828125 C-47.19571714 95.41536757 -48.78374142 97.58363022 -50.375 99.75 C-50.8385791 100.39356445 -51.3021582 101.03712891 -51.77978516 101.70019531 C-55.69925613 106.98861458 -59.88109792 112.51603244 -66.625 113.5625 C-70.26558063 112.95573656 -72.16921982 112.35898348 -75 110 C-77.9278326 105.55777123 -78.40128435 102.25625978 -78 97 C-76.671875 94.2890625 -76.671875 94.2890625 -74.75 91.625 C-74.01652344 90.58859375 -73.28304687 89.5521875 -72.52734375 88.484375 C-72.12112793 87.92556641 -71.71491211 87.36675781 -71.29638672 86.79101562 C-69.92810145 84.90066898 -68.58880533 82.99217925 -67.25390625 81.078125 C-62.59359852 74.40853576 -57.8600982 67.79331363 -53.08325195 61.20678711 C-42.43913061 46.52986856 -32.34512043 31.55995969 -22.48046875 16.34765625 C-21.89700684 15.45191895 -21.31354492 14.55618164 -20.71240234 13.63330078 C-19.57606107 11.88585609 -18.44610266 10.13424314 -17.32275391 8.37841797 C-16.79987793 7.57162598 -16.27700195 6.76483398 -15.73828125 5.93359375 C-15.05245972 4.86516235 -15.05245972 4.86516235 -14.3527832 3.77514648 C-10.63677386 -1.1010679 -5.5982604 -0.87798804 0 0 Z " fill="#F9D21B" transform="translate(892,169)"/>
<path d="M0 0 C5.46341463 2.92682927 5.46341463 2.92682927 7 6 C7.41573974 10.0694525 7.41550114 13.80889673 6.0625 17.6875 C0.42088438 24.01294782 -7.41951454 27.31174799 -15.00439453 30.75708008 C-20.62633214 33.31121595 -26.14678874 36.05434703 -31.66427612 38.82487488 C-44.70186632 45.3696514 -57.83470695 51.71668358 -71 58 C-71.69927612 58.3347937 -72.39855225 58.6695874 -73.11901855 59.01452637 C-77.13006482 60.93305647 -81.15034364 62.82909473 -85.18740845 64.69229126 C-87.01774927 65.5417317 -88.83946101 66.40968808 -90.66088867 67.27807617 C-96.93196305 70.13706175 -101.25301531 72.04596064 -108 70 C-110.79336314 67.9657674 -112.45545455 65.0890909 -114 62 C-114.50202246 57.64913872 -114.45113891 55.64637416 -111.91040039 52.00610352 C-109.10254291 48.8329439 -105.8512015 46.95887233 -102.05859375 45.15234375 C-101.38774246 44.8191362 -100.71689117 44.48592865 -100.02571106 44.1426239 C-97.83628557 43.06008449 -95.63739257 41.99858481 -93.4375 40.9375 C-91.89179745 40.17914967 -90.34655554 39.41985978 -88.80175781 38.65966797 C-78.59047564 33.65430167 -68.29968016 28.82741123 -57.94580078 24.12402344 C-50.91455126 20.90417113 -44.00698626 17.50592043 -37.12890625 13.97265625 C-36.27571808 13.53661072 -35.42252991 13.10056519 -34.54348755 12.65130615 C-30.30990571 10.48713947 -26.08668278 8.30630462 -21.87792969 6.09423828 C-20.32138046 5.29508586 -18.76443218 4.49671008 -17.20703125 3.69921875 C-16.51122452 3.32491226 -15.81541779 2.95060577 -15.098526 2.56495667 C-10.1071838 0.04304098 -5.58424643 -0.86484918 0 0 Z " fill="#F9D31C" transform="translate(293,814)"/>
<path d="M0 0 C2.86419664 2.11898711 4.41232771 4.82465542 6 8 C6.60419122 13.35925461 4.86440684 16.83371103 2.1875 21.3125 C1.78442627 22.00762695 1.38135254 22.70275391 0.96606445 23.41894531 C-2.41888269 29.18699349 -6.04650964 34.7920908 -9.71142578 40.38476562 C-17.97939774 53.02956506 -25.51462356 66.10650258 -32.96704102 79.24304199 C-38.08445406 88.25687341 -43.22963072 97.24880204 -48.6875 106.0625 C-49.15607422 106.83537354 -49.62464844 107.60824707 -50.10742188 108.40454102 C-52.59616974 112.35637919 -54.57921027 115.06908035 -59 117 C-62.58057666 117.59676278 -64.86281507 117.73781641 -67.96875 115.72265625 C-72.56459436 111.87081129 -72.56459436 111.87081129 -74 109 C-74.08984375 106.93359375 -74.08984375 106.93359375 -73.9375 104.4375 C-73.90527344 103.63183594 -73.87304688 102.82617188 -73.83984375 101.99609375 C-72.7895826 98.24934815 -70.90906643 95.68725303 -68.6965332 92.51489258 C-65.69503257 88.06555338 -63.20535344 83.32665314 -60.625 78.625 C-50.55110884 60.47198066 -39.95372603 42.63590044 -29 25 C-28.12033569 23.57772095 -28.12033569 23.57772095 -27.22290039 22.12670898 C-11.84485975 -2.43413784 -11.84485975 -2.43413784 0 0 Z " fill="#F9D31B" transform="translate(431,952)"/>
<path d="M0 0 C3.75212276 2.01502889 5.63644095 3.45466142 8 7 C8.6191472 13.29466316 7.99641936 15.86894927 4 21 C1.58261749 22.53385206 -0.58986908 23.74387351 -3.1640625 24.921875 C-3.86624908 25.25749451 -4.56843567 25.59311401 -5.29190063 25.93890381 C-12.45683961 29.31676416 -19.76883869 32.35000876 -27.10693359 35.32803345 C-44.91971608 42.56891035 -62.67225249 50.04712093 -79.72265625 58.96484375 C-80.62693359 59.4343042 -81.53121094 59.90376465 -82.46289062 60.38745117 C-84.12598668 61.25913966 -85.78067759 62.14718072 -87.42382812 63.0559082 C-92.60664132 65.7870697 -97.1309495 66.98926815 -103 66 C-106.37767969 64.57183557 -108.12741544 63.20114608 -110 60 C-110.43359375 57.59765625 -110.43359375 57.59765625 -110.4375 55.0625 C-110.45683594 54.22847656 -110.47617187 53.39445312 -110.49609375 52.53515625 C-109.69907105 48.46218198 -107.65232782 46.12916334 -104.24194336 43.79858398 C-102.10788196 42.53029284 -99.94406382 41.3488726 -97.75 40.1875 C-96.94498047 39.75228027 -96.13996094 39.31706055 -95.31054688 38.86865234 C-92.88144486 37.56379837 -90.44327415 36.27809075 -88 35 C-87.34451172 34.65565918 -86.68902344 34.31131836 -86.01367188 33.95654297 C-63.66233015 22.30089897 -40.40920234 11.39470662 -16.3359375 3.80859375 C-13.78138718 2.9940847 -13.78138718 2.9940847 -10.75 1.25 C-7.06550443 -0.42477071 -3.98142977 -0.72966442 0 0 Z " fill="#F9D31C" transform="translate(1069,348)"/>
<path d="M0 0 C4.08171878 0.06478919 6.59375832 0.46508087 9.75 3.25 C17.31105751 16.23751497 13.90923303 37.06872708 13.875 51.5625 C13.87245209 52.83258911 13.86990417 54.10267822 13.86727905 55.41125488 C13.84912565 63.14351338 13.8145168 70.87558059 13.76959229 78.60772705 C13.75103638 82.05733314 13.73875028 85.50690498 13.72802734 88.95654297 C13.70972084 93.90490153 13.66469675 98.85223849 13.59539795 103.80014038 C13.57363258 105.58637447 13.56003605 107.37272856 13.55499268 109.15908813 C13.54585504 111.61225317 13.50571402 114.06297051 13.45703125 116.515625 C13.46095383 117.21920639 13.4648764 117.92278778 13.46891785 118.64768982 C13.30319755 124.17995945 11.51874396 126.48375166 7.75 130.25 C4.0532604 132.0983698 -0.21443821 131.72016254 -4.25 131.25 C-7.78174174 128.86607433 -8.88258605 126.19827487 -10.25 122.25 C-10.51006222 119.83711243 -10.51006222 119.83711243 -10.52415466 117.27856445 C-10.53911736 115.81503036 -10.53911736 115.81503036 -10.55438232 114.32192993 C-10.55537933 112.73364883 -10.55537933 112.73364883 -10.55639648 111.11328125 C-10.56472 109.9891684 -10.57304352 108.86505554 -10.58161926 107.70687866 C-10.60571007 103.99205055 -10.61448919 100.27739793 -10.62109375 96.5625 C-10.63005879 93.98087511 -10.63918061 91.39925076 -10.64845276 88.81762695 C-10.66494144 83.4073729 -10.67267604 77.99718957 -10.67553711 72.58691406 C-10.67917558 66.33771829 -10.70909947 60.08901266 -10.75094169 53.83996677 C-10.7898278 47.82086931 -10.80112977 41.80204374 -10.80226326 35.7828064 C-10.80647465 33.22469417 -10.81894547 30.66658187 -10.83978081 28.10855103 C-10.86658356 24.53416965 -10.86190221 20.9611487 -10.84936523 17.38671875 C-10.86419952 16.32786469 -10.87903381 15.26901062 -10.89431763 14.17807007 C-10.82223214 6.97450256 -10.82223214 6.97450256 -7.77503967 3.11645508 C-6.94177658 2.5005249 -6.10851349 1.88459473 -5.25 1.25 C-3.68966377 -0.31033623 -2.16052864 0.04292441 0 0 Z " fill="#F8D31C" transform="translate(628.25,1011.75)"/>
<path d="M0 0 C5.3312631 3.62949568 8.70862903 8.32098805 12.375 13.5625 C12.94516846 14.36534424 13.51533691 15.16818848 14.1027832 15.99536133 C18.52625964 22.25071284 22.79921253 28.59316519 27 35 C27.76022497 36.13381551 28.52202271 37.26657761 29.28515625 38.3984375 C34.93494302 46.78741162 40.38169907 55.29137337 45.76171875 63.85546875 C49.9316718 70.49189916 54.15064556 77.09710198 58.36816406 83.70336914 C58.92858398 84.5824292 59.48900391 85.46148926 60.06640625 86.3671875 C60.56084229 87.14175293 61.05527832 87.91631836 61.56469727 88.71435547 C62.03834717 89.46861816 62.51199707 90.22288086 63 91 C63.54648193 91.84965332 64.09296387 92.69930664 64.65600586 93.57470703 C66.52848917 96.95368055 66.46805892 99.18866309 66 103 C63.97333762 106.70390021 62.51955484 108.65363011 59 111 C56.984375 111.40625 56.984375 111.40625 54.75 111.5 C54.02296875 111.5515625 53.2959375 111.603125 52.546875 111.65625 C45.4959468 109.83944642 41.25515244 103.002442 37.5625 97.1875 C37.05428711 96.40745605 36.54607422 95.62741211 36.02246094 94.82373047 C34.33472497 92.2242931 32.66514943 89.61395793 31 87 C30.14801025 85.66364502 30.14801025 85.66364502 29.27880859 84.30029297 C28.07429998 82.41015635 26.86979152 80.52001962 25.6652832 78.62988281 C24.71721802 77.14246582 24.71721802 77.14246582 23.75 75.625 C23.10313232 74.60889648 22.45626465 73.59279297 21.78979492 72.54589844 C15.43350648 62.59978132 8.91736631 52.7619592 2.375 42.9375 C1.8538562 42.15328674 1.3327124 41.36907349 0.79577637 40.56109619 C-0.70897323 38.29803403 -2.21716144 36.03730549 -3.7265625 33.77734375 C-4.16978851 33.11052078 -4.61301453 32.44369781 -5.06967163 31.75666809 C-7.8274811 27.63995913 -10.7257181 23.67584338 -13.77523804 19.76954651 C-16.65461229 15.60940208 -16.68563726 10.85728566 -16 6 C-12.5516477 -0.77779591 -7.27993398 -1.80736225 0 0 Z " fill="#F9D31C" transform="translate(839,960)"/>
<path d="M0 0 C5.2335684 3.14014104 7.76572789 7.45590381 10.90234375 12.60546875 C13.39654597 16.64171033 16.03714424 20.56536821 18.6875 24.5 C29.91830439 41.29623345 40.30826878 58.47061192 50.29492188 76.03613281 C51.81506014 78.67852664 53.3708124 81.29298363 54.953125 83.8984375 C55.38020752 84.61491455 55.80729004 85.3313916 56.24731445 86.06958008 C57.00394078 87.33652177 57.77447802 88.59533599 58.56323242 89.8425293 C61.27374558 94.45179781 61.76783171 98.7840616 61 104 C58.93354779 107.46868763 56.89808091 109.80891972 53 111 C48.09720829 111.89884515 48.09720829 111.89884515 45 111 C38.29469664 105.45590152 34.0484348 97.53482123 29.81802368 90.07156372 C28.72249285 88.13897558 27.6143446 86.21412285 26.50268555 84.29077148 C25.01352254 81.71322332 23.52827785 79.13349311 22.04638672 76.55175781 C11.21094962 57.70702788 -0.29223832 39.19789429 -12.546875 21.2421875 C-15.85113661 16.1436763 -17.06405684 12.089355 -16 6 C-12.02959696 -1.11425377 -7.39726061 -1.75528218 0 0 Z " fill="#F9D21B" transform="translate(386,177)"/>
<path d="M0 0 C2.88202733 0.48840463 3.77960828 1.17542027 5.55859375 3.43359375 C0.08680503 4.57885185 0.08680503 4.57885185 -2.94140625 3.74609375 C-6.71616528 3.27424887 -8.53221904 5.2009617 -11.44140625 7.43359375 C-11.77140625 6.44359375 -12.10140625 5.45359375 -12.44140625 4.43359375 C-9.21624509 -0.48093754 -5.36100285 -0.00727409 0 0 Z " fill="#F1D624" transform="translate(836.44140625,959.56640625)"/>
<path d="M0 0 C0.66 0.66 1.32 1.32 2 2 C-0.07430827 4.15524226 -2.15853821 6.29901391 -4.25 8.4375 C-4.83652344 9.04916016 -5.42304688 9.66082031 -6.02734375 10.29101562 C-6.88779297 11.1659668 -6.88779297 11.1659668 -7.765625 12.05859375 C-8.55114746 12.86768188 -8.55114746 12.86768188 -9.35253906 13.69311523 C-11.21582454 15.17120758 -12.67793522 15.59165211 -15 16 C-10.30233025 10.33870569 -5.25276628 5.14771096 0 0 Z " fill="#122C55" transform="translate(418,387)"/>
<path d="M0 0 C3 1.5 3 1.5 5 3 C4.34 3.66 3.68 4.32 3 5 C0.94140625 4.72265625 0.94140625 4.72265625 -1.4375 4.0625 C-5.19199977 3.02494487 -5.19199977 3.02494487 -9 4 C-11.1875 3.0625 -11.1875 3.0625 -13 2 C-8.69049162 -0.15475419 -4.73365653 -0.6585127 0 0 Z " fill="#E0C921" transform="translate(1069,348)"/>
<path d="M0 0 C0 0.33 0 0.66 0 1 C-8.25 0.67 -16.5 0.34 -25 0 C-25 -0.33 -25 -0.66 -25 -1 C-5.45683857 -2.64573991 -5.45683857 -2.64573991 0 0 Z " fill="#D3B921" transform="translate(188,622)"/>
<path d="M0 0 C0.66 0.99 1.32 1.98 2 3 C0.93283928 4.20205464 -0.15438337 5.38632333 -1.25 6.5625 C-2.15492188 7.55443359 -2.15492188 7.55443359 -3.078125 8.56640625 C-5 10 -5 10 -7.234375 9.71484375 C-7.81703125 9.47894531 -8.3996875 9.24304688 -9 9 C-8.01 8.67 -7.02 8.34 -6 8 C-5.67 7.34 -5.34 6.68 -5 6 C-4 4 -4 4 -1 3 C-0.67 2.01 -0.34 1.02 0 0 Z " fill="#E2C821" transform="translate(399,375)"/>
<path d="M0 0 C4.02238501 2.06554906 6.19096176 3.81064829 8 8 C8.1875 11.8125 8.1875 11.8125 8 15 C7.34 15 6.68 15 6 15 C5.90203125 14.39671875 5.8040625 13.7934375 5.703125 13.171875 C4.77183843 8.19430884 4.02540659 5.35450549 0 2 C0 1.34 0 0.68 0 0 Z " fill="#DDC222" transform="translate(230,601)"/>
<path d="M0 0 C1.921875 0.734375 1.921875 0.734375 4 2 C4.828125 3.953125 4.828125 3.953125 5.25 6.25 C5.39695312 7.04792969 5.54390625 7.84585938 5.6953125 8.66796875 C6.06115648 11.46808226 6.1445885 14.18052427 6 17 C3.97774806 13.9666221 3.00652476 11.38655511 1.875 7.9375 C1.52179687 6.87402344 1.16859375 5.81054688 0.8046875 4.71484375 C0 2 0 2 0 0 Z " fill="#D1BD22" transform="translate(927,513)"/>
<path d="M0 0 C0.66 0 1.32 0 2 0 C4.25861997 4.93387858 6.40109514 9.80355921 8 15 C5 14 5 14 3.61328125 11.6015625 C3.18402344 10.61929687 2.75476563 9.63703125 2.3125 8.625 C1.87550781 7.64789063 1.43851563 6.67078125 0.98828125 5.6640625 C0 3 0 3 0 0 Z " fill="#D7BF1E" transform="translate(931,463)"/>
<path d="M0 0 C0.79148437 -0.01417969 1.58296875 -0.02835937 2.3984375 -0.04296875 C4.625 0.1875 4.625 0.1875 7.625 2.1875 C-0.56756018 4.62076039 -0.56756018 4.62076039 -3.9375 2.8125 C-4.411875 2.27625 -4.88625 1.74 -5.375 1.1875 C-3.79539731 -0.39210269 -2.17963184 0.01763456 0 0 Z " fill="#E5C723" transform="translate(628.375,96.8125)"/>
<path d="M0 0 C0 0.66 0 1.32 0 2 C-5.22270869 4.66464729 -8.0819503 5.32854177 -14 4 C-9.8890341 1.60193656 -4.7653956 0 0 0 Z " fill="#1E2F54" transform="translate(727,950)"/>
<path d="M0 0 C3.62613199 0.56959153 5.25517741 1.92374534 7.75 4.5625 C8.36359375 5.20316406 8.9771875 5.84382813 9.609375 6.50390625 C10.06828125 6.99761719 10.5271875 7.49132812 11 8 C10.34 8.66 9.68 9.32 9 10 C7.49702124 8.52386015 5.99768715 7.04400843 4.5 5.5625 C3.6646875 4.73878906 2.829375 3.91507812 1.96875 3.06640625 C0 1 0 1 0 0 Z " fill="#192D54" transform="translate(851,389)"/>
<path d="M0 0 C0.33 0 0.66 0 1 0 C1.6269791 10.10132996 1.6269791 10.10132996 -0.875 13.6875 C-3 15 -3 15 -5 15 C-3 11 -3 11 -1.9375 9.1875 C-0.6532312 6.19087279 -0.37181126 3.22236424 0 0 Z " fill="#343E4D" transform="translate(300,822)"/>
<path d="M0 0 C0.33 0 0.66 0 1 0 C1.02698422 2.43757413 1.04683099 4.87484915 1.0625 7.3125 C1.07087891 8.00279297 1.07925781 8.69308594 1.08789062 9.40429688 C1.10307906 12.5483025 1.00193327 14.99420019 0 18 C-0.66 18 -1.32 18 -2 18 C-1.03644647 5.33029613 -1.03644647 5.33029613 0 0 Z " fill="#BFAE25" transform="translate(293,577)"/>
<path d="M0 0 C3.3 1.65 6.6 3.3 10 5 C10 5.66 10 6.32 10 7 C5.76570244 5.68938409 1.92592596 4.05643741 -2 2 C-1.34 1.34 -0.68 0.68 0 0 Z " fill="#CAB824" transform="translate(770,327)"/>
<path d="M0 0 C0 0.66 0 1.32 0 2 C-4.0527516 2.98248524 -7.83861737 3.08159574 -12 3 C-11 1 -11 1 -9.375 0.375 C-6.2339425 -0.12095645 -3.17398169 -0.06103811 0 0 Z " fill="#D1BF1E" transform="translate(672,960)"/>
<path d="M0 0 C2 3.75 2 3.75 2 6 C1.34 6 0.68 6 0 6 C0 7.65 0 9.3 0 11 C0.66 11 1.32 11 2 11 C1.67 12.65 1.34 14.3 1 16 C-1.54612278 12.18081584 -1.3165912 8.41418585 -1 4 C-0.5 1.5 -0.5 1.5 0 0 Z " fill="#D5BD21" transform="translate(942,675)"/>
<path d="M0 0 C6.27 0 12.54 0 19 0 C19 0.33 19 0.66 19 1 C17.95199219 1.09087891 17.95199219 1.09087891 16.8828125 1.18359375 C15.97273438 1.26738281 15.06265625 1.35117187 14.125 1.4375 C13.22007813 1.51871094 12.31515625 1.59992187 11.3828125 1.68359375 C8.98889139 1.86989285 8.98889139 1.86989285 7 3 C4.6505947 2.39239518 2.31470912 1.72870472 0 1 C0 0.67 0 0.34 0 0 Z " fill="#DBBB25" transform="translate(1121,597)"/>
<path d="M0 0 C0 0.99 0 1.98 0 3 C-4.22857143 7 -4.22857143 7 -8 7 C-6.47663111 3.31852519 -4.31953005 0 0 0 Z " fill="#E1C819" transform="translate(968,391)"/>
<path d="M0 0 C0.66 0.66 1.32 1.32 2 2 C-0.97 4.31 -3.94 6.62 -7 9 C-7.66 8.34 -8.32 7.68 -9 7 C-6.03 4.69 -3.06 2.38 0 0 Z " fill="#EACD1C" transform="translate(431,348)"/>
<path d="M0 0 C-0.1875 1.8125 -0.1875 1.8125 -1 4 C-3.5625 5.75 -3.5625 5.75 -6 7 C-6.33 6.01 -6.66 5.02 -7 4 C-3.375 0 -3.375 0 0 0 Z " fill="#E4C822" transform="translate(831,960)"/>
<path d="M0 0 C0.33 1.32 0.66 2.64 1 4 C0.34 4 -0.32 4 -1 4 C-1.2475 4.969375 -1.495 5.93875 -1.75 6.9375 C-2.1625 7.948125 -2.575 8.95875 -3 10 C-4.32 10.33 -5.64 10.66 -7 11 C-4.69 7.37 -2.38 3.74 0 0 Z " fill="#25344D" transform="translate(914,812)"/>
<path d="M0 0 C2 2 2 2 2.1953125 4.8203125 C2.16050781 6.45613281 2.16050781 6.45613281 2.125 8.125 C2.10695313 9.22070312 2.08890625 10.31640625 2.0703125 11.4453125 C2.04710937 12.28835938 2.02390625 13.13140625 2 14 C1.67 14 1.34 14 1 14 C0.67 12.02 0.34 10.04 0 8 C-0.33 8 -0.66 8 -1 8 C-1.04241723 5.66705225 -1.04092937 3.33297433 -1 1 C-0.67 0.67 -0.34 0.34 0 0 Z " fill="#EBD01D" transform="translate(946,598)"/>
<path d="M0 0 C0.99 0.33 1.98 0.66 3 1 C2.54554036 2.41791408 2.08625056 3.83428046 1.625 5.25 C1.36976563 6.03890625 1.11453125 6.8278125 0.8515625 7.640625 C0.04826333 9.86627958 -0.89711662 11.90931672 -2 14 C-2 11.36 -2 8.72 -2 6 C-1.01 5.67 -0.02 5.34 1 5 C0.67 3.35 0.34 1.7 0 0 Z " fill="#D9BD1F" transform="translate(332,509)"/>
<path d="M0 0 C1.98 0 3.96 0 6 0 C6 0.99 6 1.98 6 3 C3.36 3.66 0.72 4.32 -2 5 C-1.34 3.35 -0.68 1.7 0 0 Z " fill="#DFC626" transform="translate(548,309)"/>
<path d="M0 0 C4.39158329 1.4638611 4.87947433 3.97831338 7 8 C6.01 8 5.02 8 4 8 C3.67 7.34 3.34 6.68 3 6 C2.01 5.67 1.02 5.34 0 5 C0 3.35 0 1.7 0 0 Z " fill="#EFCF21" transform="translate(880,1020)"/>
<path d="M0 0 C0.75 1.5625 0.75 1.5625 1 4 C-0.13084437 6.50286409 -1.52139516 8.67007722 -3 11 C-3.66 11 -4.32 11 -5 11 C-3.77472971 6.94718288 -2.30119506 3.55639236 0 0 Z " fill="#DAC41B" transform="translate(910,774)"/>
<path d="M0 0 C0.66 0 1.32 0 2 0 C1.88512252 1.58409994 1.75765492 3.16728963 1.625 4.75 C1.52058594 6.07257812 1.52058594 6.07257812 1.4140625 7.421875 C1.00149945 9.99066382 0.28839043 11.75841015 -1 14 C-1.75654909 10.30131555 -2.20037005 7.60111016 -1 4 C-0.814375 3.2575 -0.62875 2.515 -0.4375 1.75 C-0.293125 1.1725 -0.14875 0.595 0 0 Z " fill="#D4BA1C" transform="translate(960,695)"/>
<path d="M0 0 C1 2 1 2 0.25 4.4375 C-0.93098981 6.85852911 -1.9831559 8.25818009 -4 10 C-4.66 9.67 -5.32 9.34 -6 9 C-4.02 6.03 -2.04 3.06 0 0 Z " fill="#1D2E4F" transform="translate(427,982)"/>
<path d="M0 0 C0.66 0.33 1.32 0.66 2 1 C0.84414715 4.91211733 -0.35534962 7.8745041 -3 11 C-3.36923077 4.6 -3.36923077 4.6 -1.5 1.5625 C-1.005 1.046875 -0.51 0.53125 0 0 Z " fill="#C8B524" transform="translate(101,600)"/>
<path d="M0 0 C2 3 2 3 1.625 5.1875 C1.41875 5.785625 1.2125 6.38375 1 7 C-0.32 7.33 -1.64 7.66 -3 8 C-1.125 2.25 -1.125 2.25 0 0 Z " fill="#DAC01F" transform="translate(324,479)"/>
<path d="M0 0 C1.32 0.66 2.64 1.32 4 2 C0.25 5 0.25 5 -2 5 C-2 5.66 -2 6.32 -2 7 C-2.66 7 -3.32 7 -4 7 C-2.92598892 4.08482708 -2.22189824 2.22189824 0 0 Z " fill="#E5CB20" transform="translate(190,341)"/>
<path d="M0 0 C-0.8125 1.9375 -0.8125 1.9375 -2 4 C-5.13349732 5.04449911 -5.98968256 4.93423645 -9 4 C-2.25 0 -2.25 0 0 0 Z " fill="#E6CC1D" transform="translate(798,894)"/>
<path d="M0 0 C0.66 0 1.32 0 2 0 C3.25 6.625 3.25 6.625 1 10 C-0.60725635 6.78548731 -0.05748185 3.56387464 0 0 Z " fill="#E2CA20" transform="translate(306,400)"/>
<path d="M0 0 C-3.41016497 2.86453858 -6.90694544 4.34703566 -11 6 C-11 5.34 -11 4.68 -11 4 C-7.37287308 0.37287308 -5.09424101 -0.47388288 0 0 Z " fill="#EBCE1B" transform="translate(494,334)"/>
<path d="M0 0 C2.40072955 2.88087546 4.47291037 5.56404834 6 9 C5.01 9 4.02 9 3 9 C0.75 6.1875 0.75 6.1875 -1 3 C-0.67 2.01 -0.34 1.02 0 0 Z " fill="#182E52" transform="translate(869,1045)"/>
<path d="M0 0 C0 0.33 0 0.66 0 1 C-7.92 1.495 -7.92 1.495 -16 2 C-16 1.67 -16 1.34 -16 1 C-10.28728907 -1.0662997 -5.96345767 -1.0006709 0 0 Z " fill="#414A43" transform="translate(661,939)"/>
<path d="M0 0 C1.5 1.3125 1.5 1.3125 3 3 C3 3.99 3 4.98 3 6 C2.34 6 1.68 6 1 6 C0.67 6.99 0.34 7.98 0 9 C-0.87890625 2.84765625 -0.87890625 2.84765625 -1 1 C-0.67 0.67 -0.34 0.34 0 0 Z " fill="#E5C924" transform="translate(934,529)"/>
<path d="M0 0 C0.66 0.99 1.32 1.98 2 3 C0.02 4.98 -1.96 6.96 -4 9 C-4.66 8.67 -5.32 8.34 -6 8 C-4.02 5.36 -2.04 2.72 0 0 Z " fill="#1D2F4C" transform="translate(841,268)"/>
<path d="M0 0 C0.33 0 0.66 0 1 0 C1.66 3.96 2.32 7.92 3 12 C2.01 12.495 2.01 12.495 1 13 C-0.9078584 9.8250906 -1.1609041 7.89414789 -0.625 4.25 C-0.51414062 3.45078125 -0.40328125 2.6515625 -0.2890625 1.828125 C-0.19367188 1.22484375 -0.09828125 0.6215625 0 0 Z " fill="#31444A" transform="translate(369,184)"/>
<path d="M0 0 C0.66 0.33 1.32 0.66 2 1 C0.9024777 3.99324263 0.32317108 4.84610901 -2.625 6.25 C-3.40875 6.4975 -4.1925 6.745 -5 7 C-3.47793991 4.37098712 -2.15634036 2.15634036 0 0 Z " fill="#E1C51B" transform="translate(419,953)"/>
<path d="M0 0 C0.66 0.33 1.32 0.66 2 1 C-1.75 6.875 -1.75 6.875 -4 8 C-4.66 7.34 -5.32 6.68 -6 6 C-5.195625 5.38125 -4.39125 4.7625 -3.5625 4.125 C-0.96125481 2.25835959 -0.96125481 2.25835959 0 0 Z " fill="#243650" transform="translate(640,1136)"/>
<path d="M0 0 C0.66 0 1.32 0 2 0 C0.7508258 3.45925163 -0.67527795 6.14693203 -3 9 C-2.5020163 5.26512223 -2.12508244 3.18762365 0 0 Z " fill="#25384F" transform="translate(379,1012)"/>
<path d="M0 0 C3.36720387 1.39332574 4.9859524 2.9789286 7 6 C4 6 4 6 1.8125 4.125 C0 2 0 2 0 0 Z " fill="#E2C11C" transform="translate(394,845)"/>
<path d="M0 0 C0.33 0 0.66 0 1 0 C1.99 3.3 2.98 6.6 4 10 C3.01 10 2.02 10 1 10 C-1.42857143 3.71428571 -1.42857143 3.71428571 0 0 Z " fill="#1C324F" transform="translate(813,268)"/>
<path d="M0 0 C1.98 0.66 3.96 1.32 6 2 C3 4 3 4 -1 4 C-0.67 2.68 -0.34 1.36 0 0 Z " fill="#D6B923" transform="translate(503,918)"/>
<path d="M0 0 C1.485 0.99 1.485 0.99 3 2 C2.67 2.66 2.34 3.32 2 4 C2.66 4 3.32 4 4 4 C4.33 4.99 4.66 5.98 5 7 C4.01 8.485 4.01 8.485 3 10 C2.01 6.7 1.02 3.4 0 0 Z " fill="#B9A926" transform="translate(306,743)"/>
<path d="M0 0 C0.99 0 1.98 0 3 0 C3.33 0.99 3.66 1.98 4 3 C2.68 3.99 1.36 4.98 0 6 C-1.125 2.25 -1.125 2.25 0 0 Z " fill="#EBCA21" transform="translate(335,458)"/>
<path d="M0 0 C0.99 0.33 1.98 0.66 3 1 C1.71937515 2.7074998 0.38232443 4.37373596 -1 6 C-1.66 6 -2.32 6 -3 6 C-2.67 4.68 -2.34 3.36 -2 2 C-1.34 2 -0.68 2 0 2 C0 1.34 0 0.68 0 0 Z " fill="#EBCE1E" transform="translate(431,372)"/>
<path d="M0 0 C0 0.33 0 0.66 0 1 C-4.79137588 2.6290678 -8.05632546 3.20577428 -13 2 C-13 1.67 -13 1.34 -13 1 C-8.59085217 -0.10228696 -4.51617599 -0.07654536 0 0 Z " fill="#BAA827" transform="translate(601,279)"/>
<path d="M0 0 C0.66 0.33 1.32 0.66 2 1 C0.35 3.64 -1.3 6.28 -3 9 C-3.33 8.01 -3.66 7.02 -4 6 C-2.0625 2.8125 -2.0625 2.8125 0 0 Z " fill="#172C54" transform="translate(883,209)"/>
<path d="M0 0 C1.32 0 2.64 0 4 0 C3 3 3 3 0.9375 4.1875 C0.298125 4.455625 -0.34125 4.72375 -1 5 C-1 1 -1 1 0 0 Z " fill="#E4C71F" transform="translate(879,171)"/>
</svg>
